<svg width="58" height="58" viewBox="0 0 58 58" fill="none" xmlns="http://www.w3.org/2000/svg">
<path d="M20.4758 48.5842C20.4758 51.7312 16.6492 54.2822 11.9288 54.2822C7.20847 54.2822 3.38184 51.7312 3.38184 48.5842C3.38184 45.4372 7.20847 42.8862 11.9288 42.8862C16.6492 42.8862 20.4758 45.4372 20.4758 48.5842ZM20.4758 48.5842V8.69824L54.6638 3.00024V42.8862M54.6638 42.8862C54.6638 46.0332 50.8373 48.5842 46.1168 48.5842C41.3963 48.5842 37.5698 46.0332 37.5698 42.8862C37.5698 39.7392 41.3963 37.1882 46.1168 37.1882C50.8373 37.1882 54.6638 39.7392 54.6638 42.8862ZM20.4758 20.0942L54.6638 14.3962" stroke="#242325" stroke-width="6" stroke-linecap="round" stroke-linejoin="round"/>
</svg>
