<svg width="58" height="62" viewBox="0 0 58 62" fill="none" xmlns="http://www.w3.org/2000/svg">
<path d="M39.0498 0.710693L35.5943 3.22304L53.4896 27.8541C53.3944 29.1283 52.7569 30.3087 51.6992 31.0467L45.7063 35.2325C43.811 36.5573 41.2379 36.148 39.8469 34.3019L27.4563 17.8715L24.0425 20.4422L36.4331 36.8768C38.1169 39.1076 40.6648 40.2865 43.2524 40.2865C44.9447 40.2865 46.6561 39.781 48.1519 38.734L54.1448 34.5481C56.4332 32.952 57.8006 30.3317 57.8006 27.5411V12.7466H53.5271V20.63L39.0498 0.710693ZM32.6104 2.75146L29.1548 5.2638L40.3644 20.6926L43.8199 18.1803L32.6104 2.75146ZM28.6791 8.24774L25.2194 10.7601L35.106 24.3652L38.5615 21.8528L28.6791 8.24774ZM22.7154 30.2371L20.2364 33.7135L26.776 38.3876H2.24515V42.6611H32.698C33.6916 43.4674 34.2964 44.6719 34.2964 45.9622V53.3448C34.2964 55.7017 32.3797 57.6183 30.0229 57.6183H8.65539V61.8918H30.0229C34.7366 61.8918 38.5699 58.0585 38.5699 53.3448V45.9622C38.5699 43.2079 37.2306 40.6057 34.9892 39.0052L22.7154 30.2371ZM0.108398 44.7978V49.0713H19.3391V44.7978H0.108398ZM2.24515 51.2081V55.4816H19.3391V51.2081H2.24515Z" fill="#242325"/>
</svg>
