<svg width="81" height="79" viewBox="0 0 81 79" fill="none" xmlns="http://www.w3.org/2000/svg">
<path d="M0 25.7866C0 11.9795 11.1929 0.786621 25 0.786621H55.1173C68.9244 0.786621 80.1173 11.9795 80.1173 25.7866V53.1413C80.1173 66.9484 68.9244 78.1413 55.1173 78.1413H25C11.1929 78.1413 0 66.9484 0 53.1413V25.7866Z" fill="#F7A578"/>
<g clip-path="url(#clip0_25_5)">
<path d="M39.0227 48.2915C36.5547 48.2935 34.1245 47.684 31.9496 46.5174C29.7746 45.3508 27.9226 43.6635 26.5591 41.6062L30.1189 39.24C31.0936 40.7092 32.4168 41.9143 33.9703 42.748C35.5239 43.5817 37.2596 44.0179 39.0227 44.0179C40.7859 44.0179 42.5216 43.5817 44.0751 42.748C45.6287 41.9143 46.9518 40.7092 47.9266 39.24L51.4864 41.6062C50.1229 43.6635 48.2709 45.3508 46.0959 46.5174C43.921 47.684 41.4908 48.2935 39.0227 48.2915Z" fill="#242325"/>
<path d="M47.5699 24.7873C46.7247 24.7873 45.8984 25.038 45.1957 25.5075C44.4929 25.9771 43.9451 26.6445 43.6217 27.4254C43.2982 28.2063 43.2136 29.0656 43.3785 29.8945C43.5434 30.7235 43.9504 31.485 44.5481 32.0826C45.1457 32.6803 45.9072 33.0873 46.7362 33.2522C47.5651 33.4171 48.4244 33.3325 49.2053 33.009C49.9862 32.6856 50.6536 32.1378 51.1232 31.435C51.5927 30.7323 51.8434 29.906 51.8434 29.0608C51.8489 28.4981 51.7422 27.9399 51.5294 27.4189C51.3166 26.8979 51.002 26.4246 50.6041 26.0266C50.2061 25.6287 49.7328 25.3141 49.2118 25.1013C48.6908 24.8885 48.1326 24.7818 47.5699 24.7873Z" fill="#242325"/>
<path d="M30.4761 24.7873C29.6309 24.7873 28.8047 25.038 28.1019 25.5075C27.3991 25.9771 26.8514 26.6445 26.5279 27.4254C26.2045 28.2063 26.1199 29.0656 26.2848 29.8945C26.4496 30.7235 26.8567 31.485 27.4543 32.0826C28.052 32.6803 28.8134 33.0873 29.6424 33.2522C30.4714 33.4171 31.3307 33.3325 32.1115 33.009C32.8924 32.6856 33.5598 32.1378 34.0294 31.435C34.499 30.7323 34.7496 29.906 34.7496 29.0608C34.7552 28.4981 34.6484 27.9399 34.4356 27.4189C34.2228 26.8979 33.9082 26.4246 33.5103 26.0266C33.1124 25.6287 32.6391 25.3141 32.1181 25.1013C31.5971 24.8885 31.0389 24.7818 30.4761 24.7873Z" fill="#242325"/>
<path d="M42.7319 71.7958L39.0229 69.659L47.5699 54.7018H60.3904C60.9518 54.7027 61.508 54.5928 62.0269 54.3784C62.5458 54.164 63.0173 53.8493 63.4143 53.4522C63.8114 53.0552 64.1261 52.5837 64.3405 52.0648C64.5549 51.5459 64.6648 50.9898 64.6639 50.4283V20.5138C64.6648 19.9523 64.5549 19.3962 64.3405 18.8773C64.1261 18.3583 63.8114 17.8869 63.4143 17.4898C63.0173 17.0928 62.5458 16.7781 62.0269 16.5636C61.508 16.3492 60.9518 16.2393 60.3904 16.2403H17.6554C17.0939 16.2393 16.5378 16.3492 16.0189 16.5636C15.5 16.7781 15.0285 17.0928 14.6314 17.4898C14.2344 17.8869 13.9197 18.3583 13.7052 18.8773C13.4908 19.3962 13.3809 19.9523 13.3819 20.5138V50.4283C13.3809 50.9898 13.4908 51.5459 13.7052 52.0648C13.9197 52.5837 14.2344 53.0552 14.6314 53.4522C15.0285 53.8493 15.5 54.164 16.0189 54.3784C16.5378 54.5928 17.0939 54.7027 17.6554 54.7018H36.8861V58.9753H17.6554C16.5329 58.9755 15.4214 58.7545 14.3844 58.3251C13.3473 57.8956 12.405 57.2661 11.6113 56.4724C10.8176 55.6787 10.1881 54.7364 9.7586 53.6993C9.32914 52.6622 9.1082 51.5507 9.1084 50.4283V20.5138C9.10806 19.3913 9.32891 18.2797 9.75831 17.2426C10.1877 16.2055 10.8173 15.2631 11.611 14.4694C12.4047 13.6757 13.3471 13.0461 14.3842 12.6167C15.4213 12.1873 16.5329 11.9665 17.6554 11.9668H60.3904C61.5129 11.9665 62.6244 12.1873 63.6616 12.6167C64.6987 13.0461 65.641 13.6757 66.4348 14.4694C67.2285 15.2631 67.858 16.2055 68.2875 17.2426C68.7169 18.2797 68.9377 19.3913 68.9374 20.5138V50.4283C68.9376 51.5507 68.7166 52.6622 68.2872 53.6993C67.8577 54.7364 67.2282 55.6787 66.4345 56.4724C65.6408 57.2661 64.6985 57.8956 63.6614 58.3251C62.6243 58.7545 61.5128 58.9755 60.3904 58.9753H50.0583L42.7319 71.7958Z" fill="#242325"/>
</g>
<defs>
<clipPath id="clip0_25_5">
<rect width="68.376" height="68.376" fill="white" transform="translate(4.83496 7.69336)"/>
</clipPath>
</defs>
</svg>
