<svg width="70" height="70" viewBox="0 0 70 70" fill="none" xmlns="http://www.w3.org/2000/svg">
<g clip-path="url(#clip0_23_171)">
<path d="M35.0227 41.2915C32.5547 41.2935 30.1245 40.684 27.9496 39.5174C25.7746 38.3508 23.9226 36.6635 22.5591 34.6062L26.1189 32.24C27.0936 33.7092 28.4168 34.9143 29.9703 35.748C31.5239 36.5817 33.2596 37.0179 35.0227 37.0179C36.7859 37.0179 38.5216 36.5817 40.0751 35.748C41.6287 34.9143 42.9518 33.7092 43.9266 32.24L47.4864 34.6062C46.1229 36.6635 44.2709 38.3508 42.0959 39.5174C39.921 40.684 37.4908 41.2935 35.0227 41.2915Z" fill="#242325"/>
<path d="M43.5699 17.7873C42.7247 17.7873 41.8984 18.038 41.1957 18.5075C40.4929 18.9771 39.9451 19.6445 39.6217 20.4254C39.2982 21.2063 39.2136 22.0656 39.3785 22.8945C39.5434 23.7235 39.9504 24.485 40.5481 25.0826C41.1457 25.6803 41.9072 26.0873 42.7362 26.2522C43.5651 26.4171 44.4244 26.3325 45.2053 26.009C45.9862 25.6856 46.6536 25.1378 47.1232 24.435C47.5927 23.7323 47.8434 22.906 47.8434 22.0608C47.8489 21.4981 47.7422 20.9399 47.5294 20.4189C47.3166 19.8979 47.002 19.4246 46.6041 19.0266C46.2061 18.6287 45.7328 18.3141 45.2118 18.1013C44.6908 17.8885 44.1326 17.7818 43.5699 17.7873Z" fill="#242325"/>
<path d="M26.4761 17.7873C25.6309 17.7873 24.8047 18.038 24.1019 18.5075C23.3991 18.9771 22.8514 19.6445 22.5279 20.4254C22.2045 21.2063 22.1199 22.0656 22.2848 22.8945C22.4496 23.7235 22.8567 24.485 23.4543 25.0826C24.052 25.6803 24.8134 26.0873 25.6424 26.2522C26.4714 26.4171 27.3307 26.3325 28.1115 26.009C28.8924 25.6856 29.5598 25.1378 30.0294 24.435C30.499 23.7323 30.7496 22.906 30.7496 22.0608C30.7552 21.4981 30.6484 20.9399 30.4356 20.4189C30.2228 19.8979 29.9082 19.4246 29.5103 19.0266C29.1124 18.6287 28.6391 18.3141 28.1181 18.1013C27.5971 17.8885 27.0389 17.7818 26.4761 17.7873Z" fill="#242325"/>
<path d="M38.7319 64.7958L35.0229 62.659L43.5699 47.7018H56.3904C56.9518 47.7027 57.508 47.5928 58.0269 47.3784C58.5458 47.164 59.0173 46.8493 59.4143 46.4522C59.8114 46.0552 60.1261 45.5837 60.3405 45.0648C60.5549 44.5459 60.6648 43.9898 60.6639 43.4283V13.5138C60.6648 12.9523 60.5549 12.3962 60.3405 11.8773C60.1261 11.3583 59.8114 10.8869 59.4143 10.4898C59.0173 10.0928 58.5458 9.77807 58.0269 9.56365C57.508 9.34922 56.9518 9.23934 56.3904 9.2403H13.6554C13.0939 9.23934 12.5378 9.34922 12.0189 9.56365C11.5 9.77807 11.0285 10.0928 10.6314 10.4898C10.2344 10.8869 9.91967 11.3583 9.70525 11.8773C9.49082 12.3962 9.38094 12.9523 9.3819 13.5138V43.4283C9.38094 43.9898 9.49082 44.5459 9.70525 45.0648C9.91967 45.5837 10.2344 46.0552 10.6314 46.4522C11.0285 46.8493 11.5 47.164 12.0189 47.3784C12.5378 47.5928 13.0939 47.7027 13.6554 47.7018H32.8861V51.9753H13.6554C12.5329 51.9755 11.4214 51.7545 10.3844 51.3251C9.34731 50.8956 8.40502 50.2661 7.61132 49.4724C6.81762 48.6787 6.18806 47.7364 5.7586 46.6993C5.32914 45.6622 5.1082 44.5507 5.1084 43.4283V13.5138C5.10806 12.3913 5.32891 11.2797 5.75831 10.2426C6.18772 9.20548 6.81728 8.26313 7.611 7.4694C8.40473 6.67567 9.34708 6.04612 10.3842 5.61671C11.4213 5.18731 12.5329 4.96646 13.6554 4.9668H56.3904C57.5129 4.96646 58.6244 5.18731 59.6616 5.61671C60.6987 6.04612 61.641 6.67567 62.4348 7.4694C63.2285 8.26313 63.858 9.20548 64.2875 10.2426C64.7169 11.2797 64.9377 12.3913 64.9374 13.5138V43.4283C64.9376 44.5507 64.7166 45.6622 64.2872 46.6993C63.8577 47.7364 63.2282 48.6787 62.4345 49.4724C61.6408 50.2661 60.6985 50.8956 59.6614 51.3251C58.6243 51.7545 57.5128 51.9755 56.3904 51.9753H46.0583L38.7319 64.7958Z" fill="#242325"/>
</g>
<defs>
<clipPath id="clip0_23_171">
<rect width="68.376" height="68.376" fill="white" transform="translate(0.834961 0.693359)"/>
</clipPath>
</defs>
</svg>
