<svg width="81" height="78" viewBox="0 0 81 78" fill="none" xmlns="http://www.w3.org/2000/svg">
<path d="M0 25C0 11.1929 11.1929 0 25 0H55.1173C68.9244 0 80.1173 11.1929 80.1173 25V52.3547C80.1173 66.1618 68.9244 77.3546 55.1173 77.3546H25C11.1929 77.3546 0 66.1618 0 52.3546V25Z" fill="#F7A578"/>
<path d="M30.4758 57.5842C30.4758 60.7312 26.6492 63.2822 21.9288 63.2822C17.2085 63.2822 13.3818 60.7312 13.3818 57.5842C13.3818 54.4372 17.2085 51.8862 21.9288 51.8862C26.6492 51.8862 30.4758 54.4372 30.4758 57.5842ZM30.4758 57.5842V17.6982L64.6638 12.0002V51.8862M64.6638 51.8862C64.6638 55.0332 60.8373 57.5842 56.1168 57.5842C51.3963 57.5842 47.5698 55.0332 47.5698 51.8862C47.5698 48.7392 51.3963 46.1882 56.1168 46.1882C60.8373 46.1882 64.6638 48.7392 64.6638 51.8862ZM30.4758 29.0942L64.6638 23.3962" stroke="#242325" stroke-width="6" stroke-linecap="round" stroke-linejoin="round"/>
</svg>
