<svg width="81" height="78" viewBox="0 0 81 78" fill="none" xmlns="http://www.w3.org/2000/svg">
<path d="M0 25.6452C0 11.8381 11.1929 0.645264 25 0.645264H55.1173C68.9244 0.645264 80.1173 11.8381 80.1173 25.6453V52.9999C80.1173 66.807 68.9244 77.9999 55.1173 77.9999H25C11.1929 77.9999 0 66.807 0 52.9999V25.6452Z" fill="#F7A578"/>
<path d="M48.0498 7.71069L44.5943 10.223L62.4896 34.8541C62.3944 36.1283 61.7569 37.3087 60.6992 38.0467L54.7063 42.2325C52.811 43.5573 50.2379 43.148 48.8469 41.3019L36.4563 24.8715L33.0425 27.4422L45.4331 43.8768C47.1169 46.1076 49.6648 47.2865 52.2524 47.2865C53.9447 47.2865 55.6561 46.781 57.1519 45.734L63.1448 41.5481C65.4332 39.952 66.8006 37.3317 66.8006 34.5411V19.7466H62.5271V27.63L48.0498 7.71069ZM41.6104 9.75146L38.1548 12.2638L49.3644 27.6926L52.8199 25.1803L41.6104 9.75146ZM37.6791 15.2477L34.2194 17.7601L44.106 31.3652L47.5615 28.8528L37.6791 15.2477ZM31.7154 37.2371L29.2364 40.7135L35.776 45.3876H11.2451V49.6611H41.698C42.6916 50.4674 43.2964 51.6719 43.2964 52.9622V60.3448C43.2964 62.7017 41.3797 64.6183 39.0229 64.6183H17.6554V68.8918H39.0229C43.7366 68.8918 47.5699 65.0585 47.5699 60.3448V52.9622C47.5699 50.2079 46.2306 47.6057 43.9892 46.0052L31.7154 37.2371ZM9.1084 51.7978V56.0713H28.3391V51.7978H9.1084ZM11.2451 58.2081V62.4816H28.3391V58.2081H11.2451Z" fill="#242325"/>
</svg>
