<svg width="80" height="80" viewBox="0 0 80 80" fill="none" xmlns="http://www.w3.org/2000/svg">
<path fill-rule="evenodd" clip-rule="evenodd" d="M66.6666 3.33325C72.1896 3.33325 76.6666 7.81042 76.6666 13.3333V66.6666C76.6666 72.1896 72.1896 76.6666 66.6666 76.6666H13.3333C7.81042 76.6666 3.33325 72.1896 3.33325 66.6666V13.3333C3.33325 7.81042 7.81042 3.33325 13.3333 3.33325H66.6666ZM66.6666 9.99992C68.5076 9.99992 69.9999 11.4923 69.9999 13.3333V66.6666C69.9999 68.5076 68.5076 69.9999 66.6666 69.9999H49.9999V46.6662H56.9206C58.3552 46.6662 59.6289 45.7482 60.0829 44.3869L61.5596 39.9569C62.0992 38.3379 60.8942 36.6662 59.1879 36.6662H49.9999V29.9996C49.9999 28.333 51.6666 26.6663 53.3332 26.6663H59.9999C61.8409 26.6663 63.3332 25.1739 63.3332 23.333V21.0464C63.3332 19.9696 62.6456 19.0042 61.6042 18.7295C57.2349 17.5764 53.3332 17.5764 53.3332 17.5764C44.9999 17.5764 39.9999 23.333 39.9999 28.333V36.6662H33.3332C31.4923 36.6662 29.9999 38.1586 29.9999 39.9996V43.3329C29.9999 45.1739 31.4923 46.6662 33.3332 46.6662H39.9999V69.9999H13.3333C11.4923 69.9999 9.99992 68.5076 9.99992 66.6666V13.3333C9.99992 11.4923 11.4923 9.99992 13.3333 9.99992H66.6666Z" fill="#F7A578"/>
</svg>
