<svg width="196" height="196" viewBox="0 0 196 196" fill="none" xmlns="http://www.w3.org/2000/svg">
<path d="M192.172 84.9131C192.172 119.088 144.608 133.083 95.6301 149.634C23.7851 159.531 3.82812 121.93 3.82812 87.7556C9.81521 54.9868 44.9293 19.1406 95.6301 19.1406C158.578 19.1406 192.172 50.7387 192.172 84.9131Z" fill="#F7A578"/>
<path d="M66.6094 151.049L78.2509 151.165L89.643 150.362L76.5267 177.036L61.8085 172.711L66.6094 151.049Z" fill="#F7A578"/>
<mask id="path-2-outside-1_7_16" maskUnits="userSpaceOnUse" x="39.664" y="93.2187" width="108" height="29" fill="black">
<rect fill="white" x="39.664" y="93.2187" width="108" height="29"/>
<path d="M41.5672 94.4937H57.8107V97.1764H51.159V117.536H57.8107V120.219H41.5672V117.536H48.219V97.1764H41.5672V94.4937ZM63.6029 100.704H66.5429V102.468L69.5196 100.704H76.9064L79.8831 105.041V120.219H76.9064V105.408L75.5099 103.35H67.6821L66.5429 104.526V120.219H63.6029V100.704ZM88.6153 100.704H99.0155L101.956 105.114V117.168L99.0155 120.219H88.652L85.6753 115.809V103.755L88.6153 100.704ZM88.5785 115.441L90.0485 117.573H97.8395L98.942 116.397V105.445L97.5455 103.35H89.7178L88.5785 104.563V115.441ZM120.978 100.668H123.954V111.913L115.943 120.219H113.37L107.674 111.766V100.668H110.614V111.362L114.804 117.609L120.978 111.178V100.668ZM132.429 99.8959H143.969L146.284 103.314V120.219H143.197V118.344L140.11 120.219H132.429L129.342 115.625V114.155L135.075 108.201H143.197V102.615H132.429V99.8959ZM132.429 115.257L133.863 117.426H143.197V110.994H136.288L132.429 114.963V115.257Z"/>
</mask>
<path d="M41.5672 94.4937H57.8107V97.1764H51.159V117.536H57.8107V120.219H41.5672V117.536H48.219V97.1764H41.5672V94.4937ZM63.6029 100.704H66.5429V102.468L69.5196 100.704H76.9064L79.8831 105.041V120.219H76.9064V105.408L75.5099 103.35H67.6821L66.5429 104.526V120.219H63.6029V100.704ZM88.6153 100.704H99.0155L101.956 105.114V117.168L99.0155 120.219H88.652L85.6753 115.809V103.755L88.6153 100.704ZM88.5785 115.441L90.0485 117.573H97.8395L98.942 116.397V105.445L97.5455 103.35H89.7178L88.5785 104.563V115.441ZM120.978 100.668H123.954V111.913L115.943 120.219H113.37L107.674 111.766V100.668H110.614V111.362L114.804 117.609L120.978 111.178V100.668ZM132.429 99.8959H143.969L146.284 103.314V120.219H143.197V118.344L140.11 120.219H132.429L129.342 115.625V114.155L135.075 108.201H143.197V102.615H132.429V99.8959ZM132.429 115.257L133.863 117.426H143.197V110.994H136.288L132.429 114.963V115.257Z" fill="#5141D1"/>
<path d="M41.5672 94.4937V93.3452H40.4188V94.4937H41.5672ZM57.8107 94.4937H58.9592V93.3452H57.8107V94.4937ZM57.8107 97.1764V98.3249H58.9592V97.1764H57.8107ZM51.159 97.1764V96.028H50.0105V97.1764H51.159ZM51.159 117.536H50.0105V118.684H51.159V117.536ZM57.8107 117.536H58.9592V116.388H57.8107V117.536ZM57.8107 120.219V121.367H58.9592V120.219H57.8107ZM41.5672 120.219H40.4188V121.367H41.5672V120.219ZM41.5672 117.536V116.388H40.4188V117.536H41.5672ZM48.219 117.536V118.684H49.3674V117.536H48.219ZM48.219 97.1764H49.3674V96.028H48.219V97.1764ZM41.5672 97.1764H40.4188V98.3249H41.5672V97.1764ZM41.5672 95.6421H57.8107V93.3452H41.5672V95.6421ZM56.6623 94.4937V97.1764H58.9592V94.4937H56.6623ZM57.8107 96.028H51.159V98.3249H57.8107V96.028ZM50.0105 97.1764V117.536H52.3074V97.1764H50.0105ZM51.159 118.684H57.8107V116.388H51.159V118.684ZM56.6623 117.536V120.219H58.9592V117.536H56.6623ZM57.8107 119.07H41.5672V121.367H57.8107V119.07ZM42.7157 120.219V117.536H40.4188V120.219H42.7157ZM41.5672 118.684H48.219V116.388H41.5672V118.684ZM49.3674 117.536V97.1764H47.0705V117.536H49.3674ZM48.219 96.028H41.5672V98.3249H48.219V96.028ZM42.7157 97.1764V94.4937H40.4188V97.1764H42.7157ZM63.6029 100.704V99.556H62.4544V100.704H63.6029ZM66.5429 100.704H67.6913V99.556H66.5429V100.704ZM66.5429 102.468H65.3944V104.484L67.1283 103.456L66.5429 102.468ZM69.5196 100.704V99.556H69.2049L68.9341 99.7164L69.5196 100.704ZM76.9064 100.704L77.8532 100.054L77.511 99.556H76.9064V100.704ZM79.8831 105.041H81.0316V104.685L80.8299 104.391L79.8831 105.041ZM79.8831 120.219V121.367H81.0316V120.219H79.8831ZM76.9064 120.219H75.7579V121.367H76.9064V120.219ZM76.9064 105.408H78.0548V105.056L77.8567 104.764L76.9064 105.408ZM75.5099 103.35L76.4602 102.706L76.1185 102.202H75.5099V103.35ZM67.6821 103.35V102.202H67.1957L66.8573 102.551L67.6821 103.35ZM66.5429 104.526L65.718 103.727L65.3944 104.061V104.526H66.5429ZM66.5429 120.219V121.367H67.6913V120.219H66.5429ZM63.6029 120.219H62.4544V121.367H63.6029V120.219ZM63.6029 101.853H66.5429V99.556H63.6029V101.853ZM65.3944 100.704V102.468H67.6913V100.704H65.3944ZM67.1283 103.456L70.1051 101.692L68.9341 99.7164L65.9574 101.48L67.1283 103.456ZM69.5196 101.853H76.9064V99.556H69.5196V101.853ZM75.9595 101.354L78.9363 105.691L80.8299 104.391L77.8532 100.054L75.9595 101.354ZM78.7347 105.041V120.219H81.0316V105.041H78.7347ZM79.8831 119.07H76.9064V121.367H79.8831V119.07ZM78.0548 120.219V105.408H75.7579V120.219H78.0548ZM77.8567 104.764L76.4602 102.706L74.5596 103.995L75.9561 106.053L77.8567 104.764ZM75.5099 102.202H67.6821V104.499H75.5099V102.202ZM66.8573 102.551L65.718 103.727L67.3677 105.326L68.507 104.15L66.8573 102.551ZM65.3944 104.526V120.219H67.6913V104.526H65.3944ZM66.5429 119.07H63.6029V121.367H66.5429V119.07ZM64.7513 120.219V100.704H62.4544V120.219H64.7513ZM88.6153 100.704V99.556H88.1271L87.7884 99.9075L88.6153 100.704ZM99.0155 100.704L99.9711 100.067L99.6301 99.556H99.0155V100.704ZM101.956 105.114H103.104V104.767L102.911 104.477L101.956 105.114ZM101.956 117.168L102.782 117.965L103.104 117.632V117.168H101.956ZM99.0155 120.219V121.367H99.5036L99.8424 121.016L99.0155 120.219ZM88.652 120.219L87.7001 120.861L88.0416 121.367H88.652V120.219ZM85.6753 115.809H84.5268V116.16L84.7234 116.451L85.6753 115.809ZM85.6753 103.755L84.8484 102.958L84.5268 103.291V103.755H85.6753ZM88.5785 115.441H87.4301V115.799L87.6331 116.093L88.5785 115.441ZM90.0485 117.573L89.1031 118.225L89.4455 118.721H90.0485V117.573ZM97.8395 117.573V118.721H98.3371L98.6773 118.358L97.8395 117.573ZM98.942 116.397L99.7798 117.182L100.09 116.851V116.397H98.942ZM98.942 105.445H100.09V105.097L99.8976 104.808L98.942 105.445ZM97.5455 103.35L98.5011 102.713L98.1601 102.202H97.5455V103.35ZM89.7178 103.35V102.202H89.2209L88.8807 102.564L89.7178 103.35ZM88.5785 104.563L87.7415 103.777L87.4301 104.108V104.563H88.5785ZM88.6153 101.853H99.0155V99.556H88.6153V101.853ZM98.06 101.341L101 105.751L102.911 104.477L99.9711 100.067L98.06 101.341ZM100.807 105.114V117.168H103.104V105.114H100.807ZM101.129 116.371L98.1886 119.422L99.8424 121.016L102.782 117.965L101.129 116.371ZM99.0155 119.07H88.652V121.367H99.0155V119.07ZM89.6039 119.576L86.6271 115.166L84.7234 116.451L87.7001 120.861L89.6039 119.576ZM86.8237 115.809V103.755H84.5268V115.809H86.8237ZM86.5021 104.552L89.4421 101.501L87.7884 99.9075L84.8484 102.958L86.5021 104.552ZM87.6331 116.093L89.1031 118.225L90.9939 116.921L89.5239 114.789L87.6331 116.093ZM90.0485 118.721H97.8395V116.424H90.0485V118.721ZM98.6773 118.358L99.7798 117.182L98.1042 115.611L97.0017 116.787L98.6773 118.358ZM100.09 116.397V105.445H97.7936V116.397H100.09ZM99.8976 104.808L98.5011 102.713L96.59 103.987L97.9865 106.082L99.8976 104.808ZM97.5455 102.202H89.7178V104.499H97.5455V102.202ZM88.8807 102.564L87.7415 103.777L89.4155 105.349L90.5548 104.137L88.8807 102.564ZM87.4301 104.563V115.441H89.7269V104.563H87.4301ZM120.978 100.668V99.5193H119.829V100.668H120.978ZM123.954 100.668H125.103V99.5193H123.954V100.668ZM123.954 111.913L124.781 112.71L125.103 112.377V111.913H123.954ZM115.943 120.219V121.367H116.431L116.769 121.016L115.943 120.219ZM113.37 120.219L112.418 120.86L112.759 121.367H113.37V120.219ZM107.674 111.766H106.526V112.117L106.722 112.408L107.674 111.766ZM107.674 100.668V99.5193H106.526V100.668H107.674ZM110.614 100.668H111.763V99.5193H110.614V100.668ZM110.614 111.362H109.466V111.711L109.66 112.002L110.614 111.362ZM114.804 117.609L113.85 118.249L114.644 119.434L115.632 118.405L114.804 117.609ZM120.978 111.178L121.806 111.974L122.126 111.64V111.178H120.978ZM120.978 101.816H123.954V99.5193H120.978V101.816ZM122.806 100.668V111.913H125.103V100.668H122.806ZM123.128 111.116L115.116 119.421L116.769 121.016L124.781 112.71L123.128 111.116ZM115.943 119.07H113.37V121.367H115.943V119.07ZM114.323 119.577L108.627 111.124L106.722 112.408L112.418 120.86L114.323 119.577ZM108.823 111.766V100.668H106.526V111.766H108.823ZM107.674 101.816H110.614V99.5193H107.674V101.816ZM109.466 100.668V111.362H111.763V100.668H109.466ZM109.66 112.002L113.85 118.249L115.757 116.97L111.568 110.722L109.66 112.002ZM115.632 118.405L121.806 111.974L120.149 110.383L113.975 116.814L115.632 118.405ZM122.126 111.178V100.668H119.829V111.178H122.126ZM132.429 99.8959V98.7475H131.281V99.8959H132.429ZM143.969 99.8959L144.92 99.2518L144.578 98.7475H143.969V99.8959ZM146.284 103.314H147.432V102.961L147.235 102.67L146.284 103.314ZM146.284 120.219V121.367H147.432V120.219H146.284ZM143.197 120.219H142.049V121.367H143.197V120.219ZM143.197 118.344H144.345V116.304L142.601 117.363L143.197 118.344ZM140.11 120.219V121.367H140.431L140.706 121.2L140.11 120.219ZM132.429 120.219L131.476 120.859L131.817 121.367H132.429V120.219ZM129.342 115.625H128.194V115.975L128.389 116.265L129.342 115.625ZM129.342 114.155L128.515 113.358L128.194 113.692V114.155H129.342ZM135.075 108.201V107.053H134.587L134.248 107.405L135.075 108.201ZM143.197 108.201V109.35H144.345V108.201H143.197ZM143.197 102.615H144.345V101.467H143.197V102.615ZM132.429 102.615H131.281V103.764H132.429V102.615ZM132.429 115.257H131.281V115.603L131.471 115.891L132.429 115.257ZM133.863 117.426L132.905 118.059L133.245 118.574H133.863V117.426ZM143.197 117.426V118.574H144.345V117.426H143.197ZM143.197 110.994H144.345V109.846H143.197V110.994ZM136.288 110.994V109.846H135.803L135.465 110.194L136.288 110.994ZM132.429 114.963L131.606 114.163L131.281 114.497V114.963H132.429ZM132.429 101.044H143.969V98.7475H132.429V101.044ZM143.018 100.54L145.333 103.958L147.235 102.67L144.92 99.2518L143.018 100.54ZM145.136 103.314V120.219H147.432V103.314H145.136ZM146.284 119.07H143.197V121.367H146.284V119.07ZM144.345 120.219V118.344H142.049V120.219H144.345ZM142.601 117.363L139.514 119.237L140.706 121.2L143.793 119.326L142.601 117.363ZM140.11 119.07H132.429V121.367H140.11V119.07ZM133.383 119.578L130.296 114.984L128.389 116.265L131.476 120.859L133.383 119.578ZM130.491 115.625V114.155H128.194V115.625H130.491ZM130.17 114.952L135.903 108.998L134.248 107.405L128.515 113.358L130.17 114.952ZM135.075 109.35H143.197V107.053H135.075V109.35ZM144.345 108.201V102.615H142.049V108.201H144.345ZM143.197 101.467H132.429V103.764H143.197V101.467ZM133.578 102.615V99.8959H131.281V102.615H133.578ZM131.471 115.891L132.905 118.059L134.821 116.792L133.387 114.624L131.471 115.891ZM133.863 118.574H143.197V116.277H133.863V118.574ZM144.345 117.426V110.994H142.049V117.426H144.345ZM143.197 109.846H136.288V112.143H143.197V109.846ZM135.465 110.194L131.606 114.163L133.253 115.764L137.111 111.795L135.465 110.194ZM131.281 114.963V115.257H133.578V114.963H131.281Z" fill="#5141D1" mask="url(#path-2-outside-1_7_16)"/>
<path d="M143.89 82.4293L143.89 61.768M144.745 62.5428H165.856M144.745 81.6545H165.856M144.745 72.047H155.301" stroke="#5141D1" stroke-width="5.74219"/>
<path d="M97.9999 84.3867L97.9999 61.768M130.405 84.3867V61.768M120.798 68.5536V63.4644M107.608 68.5536V63.4644M98.8527 62.6162H108.461M119.945 62.6162H129.553M108.461 67.7054L119.945 67.7054" stroke="#5141D1" stroke-width="5.74219"/>
<path d="M63.4196 84.3867L63.4196 61.768M84.5158 84.3867L84.5158 61.768M64.2748 73.0208L83.6605 73.0208M64.2748 62.6162L83.6605 62.6162" stroke="#5141D1" stroke-width="5.74219"/>
<path d="M50.3703 61.7681H27.5342M50.3703 71.5889H38.0959M50.3703 81.6243H29.2469M28.3905 82.4293V62.5731M49.514 80.8194V71.9645" stroke="#5141D1" stroke-width="5.74219"/>
<rect x="89.5179" y="81.3417" width="3.04482" height="3.04482" fill="#5141D1"/>
<rect x="54.7199" y="81.3417" width="3.04482" height="3.04482" fill="#5141D1"/>
<rect x="135.19" y="81.3417" width="3.04482" height="3.04482" fill="#5141D1"/>
<rect x="168.031" y="81.3417" width="3.04482" height="3.04482" fill="#5141D1"/>
</svg>
