<svg width="77" height="77" viewBox="0 0 77 77" fill="none" xmlns="http://www.w3.org/2000/svg">
<g clip-path="url(#clip0_23_159)">
<path fill-rule="evenodd" clip-rule="evenodd" d="M22.5982 0.472507C16.3308 0.75529 10.8986 2.28758 6.51225 6.65544C2.11055 11.0463 0.597294 16.5 0.313807 22.7021C0.137585 26.5732 -0.892869 55.8185 2.09523 63.488C4.11028 68.6622 8.07899 72.6406 13.3005 74.6621C15.737 75.6098 18.5183 76.2513 22.5982 76.4386C56.7123 77.9824 69.3581 77.1419 74.6907 63.488C75.6369 61.0576 76.2882 58.2788 76.4682 54.209C78.0274 20.0073 76.2154 12.5939 70.2699 6.65544C65.5541 1.95128 60.0069 -1.25094 22.5982 0.472507ZM22.9122 69.5601C19.1771 69.3919 17.1506 68.7696 15.7983 68.246C12.3964 66.9238 9.84125 64.3792 8.52725 60.9972C6.2517 55.1695 7.00641 27.491 7.20945 23.0123C7.40866 18.6253 8.29741 14.6159 11.3928 11.5206C15.2237 7.69915 20.1731 5.8263 53.8735 7.34724C58.2714 7.54594 62.2901 8.43288 65.3931 11.5206C69.224 15.342 71.1241 20.3295 69.5764 53.9007C69.4079 57.6265 68.7835 59.6482 68.2586 60.9972C64.7917 69.882 56.8157 71.1154 22.9122 69.5601ZM54.2452 18.055C54.2452 20.5848 56.3024 22.642 58.8423 22.642C61.3822 22.642 63.4432 20.5848 63.4432 18.055C63.4432 15.5253 61.3822 13.47 58.8423 13.47C56.3024 13.47 54.2452 15.5253 54.2452 18.055ZM18.7213 38.4537C18.7213 49.2912 27.5285 58.0778 38.3929 58.0778C49.2574 58.0778 58.0646 49.2912 58.0646 38.4537C58.0646 27.6161 49.2574 18.8352 38.3929 18.8352C27.5285 18.8352 18.7213 27.6161 18.7213 38.4537ZM25.6245 38.4537C25.6245 31.4223 31.3403 25.7175 38.3929 25.7175C45.4456 25.7175 51.1613 31.4223 51.1613 38.4537C51.1613 45.4889 45.4456 51.1955 38.3929 51.1955C31.3403 51.1955 25.6245 45.4889 25.6245 38.4537Z" fill="#F7A578"/>
</g>
<defs>
<clipPath id="clip0_23_159">
<rect width="77" height="77" fill="white"/>
</clipPath>
</defs>
</svg>
