<svg width="74" height="74" viewBox="0 0 74 74" fill="none" xmlns="http://www.w3.org/2000/svg">
<g clip-path="url(#clip0_23_154)">
<path fill-rule="evenodd" clip-rule="evenodd" d="M74 74H59.2V48.1036C59.2 40.9996 56.0661 37.0361 50.4458 37.0361C44.3297 37.0361 40.7 41.1661 40.7 48.1036V74H25.9V25.9H40.7V31.3091C40.7 31.3091 45.3435 23.1611 55.8071 23.1611C66.2744 23.1611 74 29.5486 74 42.765V74ZM9.03541 18.2073C4.04411 18.2073 0 14.1302 0 9.10186C0 4.07726 4.04411 0 9.03541 0C14.023 0 18.0671 4.07726 18.0671 9.10186C18.0708 14.1302 14.023 18.2073 9.03541 18.2073ZM0 74H18.5V25.9H0V74Z" fill="#F7A578"/>
</g>
<defs>
<clipPath id="clip0_23_154">
<rect width="74" height="74" fill="white"/>
</clipPath>
</defs>
</svg>
