<svg width="512" height="512" viewBox="0 0 512 512" fill="none" xmlns="http://www.w3.org/2000/svg">
<path d="M502 221.814C502 311.086 377.751 347.646 249.809 390.88C62.1324 416.734 10 318.511 10 229.239C25.6397 143.639 117.366 50 249.809 50C414.244 50 502 132.542 502 221.814Z" fill="#F7A578"/>
<path d="M174 394.576L204.411 394.88L234.17 392.783L199.907 462.462L161.459 451.164L174 394.576Z" fill="#F7A578"/>
<mask id="path-2-outside-1_6_3" maskUnits="userSpaceOnUse" x="105" y="243" width="281" height="74" fill="black">
<rect fill="white" x="105" y="243" width="281" height="74"/>
<path d="M108.584 246.8H151.016V253.808H133.64V306.992H151.016V314H108.584V306.992H125.96V253.808H108.584V246.8ZM166.146 263.024H173.826V267.632L181.602 263.024H200.898L208.674 274.352V314H200.898V275.312L197.25 269.936H176.802L173.826 273.008V314H166.146V263.024ZM231.485 263.024H258.653L266.333 274.544V306.032L258.653 314H231.581L223.805 302.48V270.992L231.485 263.024ZM231.389 301.52L235.229 307.088H255.581L258.461 304.016V275.408L254.813 269.936H234.365L231.389 273.104V301.52ZM316.023 262.928H323.799V292.304L302.871 314H296.151L281.271 291.92V262.928H288.951V290.864L299.895 307.184L316.023 290.384V262.928ZM345.938 260.912H376.082L382.13 269.84V314H374.066V309.104L366.002 314H345.938L337.874 302V298.16L352.85 282.608H374.066V268.016H345.938V260.912ZM345.938 301.04L349.682 306.704H374.066V289.904H356.018L345.938 300.272V301.04Z"/>
</mask>
<path d="M108.584 246.8H151.016V253.808H133.64V306.992H151.016V314H108.584V306.992H125.96V253.808H108.584V246.8ZM166.146 263.024H173.826V267.632L181.602 263.024H200.898L208.674 274.352V314H200.898V275.312L197.25 269.936H176.802L173.826 273.008V314H166.146V263.024ZM231.485 263.024H258.653L266.333 274.544V306.032L258.653 314H231.581L223.805 302.48V270.992L231.485 263.024ZM231.389 301.52L235.229 307.088H255.581L258.461 304.016V275.408L254.813 269.936H234.365L231.389 273.104V301.52ZM316.023 262.928H323.799V292.304L302.871 314H296.151L281.271 291.92V262.928H288.951V290.864L299.895 307.184L316.023 290.384V262.928ZM345.938 260.912H376.082L382.13 269.84V314H374.066V309.104L366.002 314H345.938L337.874 302V298.16L352.85 282.608H374.066V268.016H345.938V260.912ZM345.938 301.04L349.682 306.704H374.066V289.904H356.018L345.938 300.272V301.04Z" fill="#5141D1"/>
<path d="M108.584 246.8V243.8H105.584V246.8H108.584ZM151.016 246.8H154.016V243.8H151.016V246.8ZM151.016 253.808V256.808H154.016V253.808H151.016ZM133.64 253.808V250.808H130.64V253.808H133.64ZM133.64 306.992H130.64V309.992H133.64V306.992ZM151.016 306.992H154.016V303.992H151.016V306.992ZM151.016 314V317H154.016V314H151.016ZM108.584 314H105.584V317H108.584V314ZM108.584 306.992V303.992H105.584V306.992H108.584ZM125.96 306.992V309.992H128.96V306.992H125.96ZM125.96 253.808H128.96V250.808H125.96V253.808ZM108.584 253.808H105.584V256.808H108.584V253.808ZM108.584 249.8H151.016V243.8H108.584V249.8ZM148.016 246.8V253.808H154.016V246.8H148.016ZM151.016 250.808H133.64V256.808H151.016V250.808ZM130.64 253.808V306.992H136.64V253.808H130.64ZM133.64 309.992H151.016V303.992H133.64V309.992ZM148.016 306.992V314H154.016V306.992H148.016ZM151.016 311H108.584V317H151.016V311ZM111.584 314V306.992H105.584V314H111.584ZM108.584 309.992H125.96V303.992H108.584V309.992ZM128.96 306.992V253.808H122.96V306.992H128.96ZM125.96 250.808H108.584V256.808H125.96V250.808ZM111.584 253.808V246.8H105.584V253.808H111.584ZM166.146 263.024V260.024H163.146V263.024H166.146ZM173.826 263.024H176.826V260.024H173.826V263.024ZM173.826 267.632H170.826V272.897L175.356 270.213L173.826 267.632ZM181.602 263.024V260.024H180.78L180.073 260.443L181.602 263.024ZM200.898 263.024L203.372 261.326L202.478 260.024H200.898V263.024ZM208.674 274.352H211.674V273.421L211.148 272.654L208.674 274.352ZM208.674 314V317H211.674V314H208.674ZM200.898 314H197.898V317H200.898V314ZM200.898 275.312H203.898V274.39L203.381 273.627L200.898 275.312ZM197.25 269.936L199.733 268.251L198.84 266.936H197.25V269.936ZM176.802 269.936V266.936H175.532L174.648 267.848L176.802 269.936ZM173.826 273.008L171.672 270.92L170.826 271.793V273.008H173.826ZM173.826 314V317H176.826V314H173.826ZM166.146 314H163.146V317H166.146V314ZM166.146 266.024H173.826V260.024H166.146V266.024ZM170.826 263.024V267.632H176.826V263.024H170.826ZM175.356 270.213L183.132 265.605L180.073 260.443L172.297 265.051L175.356 270.213ZM181.602 266.024H200.898V260.024H181.602V266.024ZM198.425 264.722L206.201 276.05L211.148 272.654L203.372 261.326L198.425 264.722ZM205.674 274.352V314H211.674V274.352H205.674ZM208.674 311H200.898V317H208.674V311ZM203.898 314V275.312H197.898V314H203.898ZM203.381 273.627L199.733 268.251L194.768 271.62L198.416 276.996L203.381 273.627ZM197.25 266.936H176.802V272.936H197.25V266.936ZM174.648 267.848L171.672 270.92L175.981 275.095L178.957 272.023L174.648 267.848ZM170.826 273.008V314H176.826V273.008H170.826ZM173.826 311H166.146V317H173.826V311ZM169.146 314V263.024H163.146V314H169.146ZM231.485 263.024V260.024H230.21L229.325 260.942L231.485 263.024ZM258.653 263.024L261.149 261.36L260.258 260.024H258.653V263.024ZM266.333 274.544H269.333V273.635L268.829 272.88L266.333 274.544ZM266.333 306.032L268.493 308.114L269.333 307.242V306.032H266.333ZM258.653 314V317H259.928L260.813 316.082L258.653 314ZM231.581 314L229.094 315.678L229.986 317H231.581V314ZM223.805 302.48H220.805V303.398L221.318 304.158L223.805 302.48ZM223.805 270.992L221.645 268.91L220.805 269.781V270.992H223.805ZM231.389 301.52H228.389V302.454L228.919 303.223L231.389 301.52ZM235.229 307.088L232.759 308.791L233.653 310.088H235.229V307.088ZM255.581 307.088V310.088H256.88L257.769 309.14L255.581 307.088ZM258.461 304.016L260.649 306.068L261.461 305.202V304.016H258.461ZM258.461 275.408H261.461V274.499L260.957 273.744L258.461 275.408ZM254.813 269.936L257.309 268.272L256.418 266.936H254.813V269.936ZM234.365 269.936V266.936H233.067L232.178 267.882L234.365 269.936ZM231.389 273.104L229.202 271.05L228.389 271.916V273.104H231.389ZM231.485 266.024H258.653V260.024H231.485V266.024ZM256.157 264.688L263.837 276.208L268.829 272.88L261.149 261.36L256.157 264.688ZM263.333 274.544V306.032H269.333V274.544H263.333ZM264.173 303.95L256.493 311.918L260.813 316.082L268.493 308.114L264.173 303.95ZM258.653 311H231.581V317H258.653V311ZM234.067 312.321L226.291 300.801L221.318 304.158L229.094 315.678L234.067 312.321ZM226.805 302.48V270.992H220.805V302.48H226.805ZM225.965 273.074L233.645 265.106L229.325 260.942L221.645 268.91L225.965 273.074ZM228.919 303.223L232.759 308.791L237.698 305.385L233.858 299.817L228.919 303.223ZM235.229 310.088H255.581V304.088H235.229V310.088ZM257.769 309.14L260.649 306.068L256.272 301.964L253.392 305.036L257.769 309.14ZM261.461 304.016V275.408H255.461V304.016H261.461ZM260.957 273.744L257.309 268.272L252.317 271.6L255.965 277.072L260.957 273.744ZM254.813 266.936H234.365V272.936H254.813V266.936ZM232.178 267.882L229.202 271.05L233.575 275.158L236.551 271.99L232.178 267.882ZM228.389 273.104V301.52H234.389V273.104H228.389ZM316.023 262.928V259.928H313.023V262.928H316.023ZM323.799 262.928H326.799V259.928H323.799V262.928ZM323.799 292.304L325.958 294.387L326.799 293.515V292.304H323.799ZM302.871 314V317H304.146L305.03 316.083L302.871 314ZM296.151 314L293.663 315.676L294.555 317H296.151V314ZM281.271 291.92H278.271V292.836L278.783 293.596L281.271 291.92ZM281.271 262.928V259.928H278.271V262.928H281.271ZM288.951 262.928H291.951V259.928H288.951V262.928ZM288.951 290.864H285.951V291.777L286.46 292.535L288.951 290.864ZM299.895 307.184L297.404 308.855L299.479 311.949L302.059 309.261L299.895 307.184ZM316.023 290.384L318.187 292.461L319.023 291.591V290.384H316.023ZM316.023 265.928H323.799V259.928H316.023V265.928ZM320.799 262.928V292.304H326.799V262.928H320.799ZM321.64 290.221L300.712 311.917L305.03 316.083L325.958 294.387L321.64 290.221ZM302.871 311H296.151V317H302.871V311ZM298.639 312.323L283.759 290.243L278.783 293.596L293.663 315.676L298.639 312.323ZM284.271 291.92V262.928H278.271V291.92H284.271ZM281.271 265.928H288.951V259.928H281.271V265.928ZM285.951 262.928V290.864H291.951V262.928H285.951ZM286.46 292.535L297.404 308.855L302.387 305.513L291.443 289.193L286.46 292.535ZM302.059 309.261L318.187 292.461L313.859 288.306L297.731 305.106L302.059 309.261ZM319.023 290.384V262.928H313.023V290.384H319.023ZM345.938 260.912V257.912H342.938V260.912H345.938ZM376.082 260.912L378.566 259.229L377.673 257.912H376.082V260.912ZM382.13 269.84H385.13V268.919L384.614 268.157L382.13 269.84ZM382.13 314V317H385.13V314H382.13ZM374.066 314H371.066V317H374.066V314ZM374.066 309.104H377.066V303.773L372.509 306.539L374.066 309.104ZM366.002 314V317H366.841L367.559 316.564L366.002 314ZM345.938 314L343.448 315.673L344.339 317H345.938V314ZM337.874 302H334.874V302.914L335.384 303.673L337.874 302ZM337.874 298.16L335.713 296.079L334.874 296.95V298.16H337.874ZM352.85 282.608V279.608H351.574L350.689 280.527L352.85 282.608ZM374.066 282.608V285.608H377.066V282.608H374.066ZM374.066 268.016H377.066V265.016H374.066V268.016ZM345.938 268.016H342.938V271.016H345.938V268.016ZM345.938 301.04H342.938V301.942L343.435 302.694L345.938 301.04ZM349.682 306.704L347.179 308.358L348.069 309.704H349.682V306.704ZM374.066 306.704V309.704H377.066V306.704H374.066ZM374.066 289.904H377.066V286.904H374.066V289.904ZM356.018 289.904V286.904H354.75L353.867 287.813L356.018 289.904ZM345.938 300.272L343.787 298.181L342.938 299.054V300.272H345.938ZM345.938 263.912H376.082V257.912H345.938V263.912ZM373.598 262.594L379.646 271.522L384.614 268.157L378.566 259.229L373.598 262.594ZM379.13 269.84V314H385.13V269.84H379.13ZM382.13 311H374.066V317H382.13V311ZM377.066 314V309.104H371.066V314H377.066ZM372.509 306.539L364.445 311.435L367.559 316.564L375.623 311.668L372.509 306.539ZM366.002 311H345.938V317H366.002V311ZM348.428 312.327L340.364 300.327L335.384 303.673L343.448 315.673L348.428 312.327ZM340.874 302V298.16H334.874V302H340.874ZM340.035 300.241L355.011 284.689L350.689 280.527L335.713 296.079L340.035 300.241ZM352.85 285.608H374.066V279.608H352.85V285.608ZM377.066 282.608V268.016H371.066V282.608H377.066ZM374.066 265.016H345.938V271.016H374.066V265.016ZM348.938 268.016V260.912H342.938V268.016H348.938ZM343.435 302.694L347.179 308.358L352.184 305.05L348.44 299.386L343.435 302.694ZM349.682 309.704H374.066V303.704H349.682V309.704ZM377.066 306.704V289.904H371.066V306.704H377.066ZM374.066 286.904H356.018V292.904H374.066V286.904ZM353.867 287.813L343.787 298.181L348.089 302.363L358.169 291.995L353.867 287.813ZM342.938 300.272V301.04H348.938V300.272H342.938Z" fill="#5141D1" mask="url(#path-2-outside-1_6_3)"/>
<path d="M375.875 215.325L375.875 161.353M378.11 163.377H433.256M378.11 213.301H433.256M378.11 188.204H405.683" stroke="#5141D1" stroke-width="15"/>
<path d="M256 220.439L256 161.353M340.651 220.439V161.353M315.553 179.079V165.785M281.098 179.079V165.785M258.227 163.569H283.326M313.325 163.569H338.423M283.326 176.863L313.325 176.863" stroke="#5141D1" stroke-width="15"/>
<path d="M165.667 220.439L165.667 161.353M220.776 220.439L220.776 161.353M167.901 190.748L218.542 190.748M167.901 163.569L218.542 163.569" stroke="#5141D1" stroke-width="15"/>
<path d="M131.58 161.353H71.926M131.58 187.008H99.5158M131.58 213.223H76.4M74.163 215.326V163.456M129.343 211.12V187.989" stroke="#5141D1" stroke-width="15"/>
<rect x="233.843" y="212.485" width="7.95381" height="7.95381" fill="#5141D1"/>
<rect x="142.942" y="212.485" width="7.95381" height="7.95381" fill="#5141D1"/>
<rect x="353.15" y="212.485" width="7.95381" height="7.95381" fill="#5141D1"/>
<rect x="438.937" y="212.485" width="7.95381" height="7.95381" fill="#5141D1"/>
</svg>
