<svg width="74" height="74" viewBox="0 0 74 74" fill="none" xmlns="http://www.w3.org/2000/svg">
<path fill-rule="evenodd" clip-rule="evenodd" d="M60.9969 12.0814C62.0714 11.8267 62.8207 11.5763 63.4346 11.3133C64.2948 10.9447 65.008 10.5032 66.1349 9.75959C67.0818 9.13462 68.2954 9.0802 69.2944 9.61788C70.2934 10.1555 70.9166 11.1985 70.9166 12.333C70.9166 15.6659 70.5013 18.3975 69.5399 20.8015C68.7308 22.8236 67.5943 24.4659 66.2348 25.9608C65.6607 36.3304 62.6591 44.4738 58.0702 50.6432C53.3138 57.0378 46.9856 61.1327 40.3148 63.4261C33.6634 65.7124 26.6357 66.2233 20.3397 65.4491C14.0851 64.6801 8.30345 62.6093 4.27356 59.4751C3.16998 58.6167 2.78204 57.1232 3.3284 55.8362C3.87477 54.5492 5.21864 53.791 6.60268 53.9889C10.5678 54.5554 14.3846 53.6538 17.5231 52.365C16.9053 52.0289 16.3227 51.665 15.7813 51.2901C12.9214 49.3103 10.614 46.6226 9.57542 44.5453C9.14563 43.686 9.14119 42.675 9.56342 41.8119C9.78123 41.3664 10.0997 40.9868 10.4865 40.6973C6.31079 37.2511 4.62488 32.4846 4.62488 29.2913C4.62488 28.3418 5.06234 27.4453 5.81073 26.861C6.12541 26.6153 6.48031 26.4363 6.85441 26.3286C6.54194 25.4136 6.29947 24.4892 6.11465 23.5943C5.2952 19.6264 5.36793 15.148 6.25861 11.5852C6.5634 10.366 7.57763 9.45378 8.82222 9.27945C10.0668 9.10515 11.2926 9.70362 11.9206 10.7922C15.243 16.5509 21.371 20.0708 27.0742 22.1559C29.7556 23.1363 32.2389 23.7609 34.1003 24.145C34.5021 20.3815 35.5529 17.2779 37.1658 14.8128C39.2936 11.5605 42.2613 9.63628 45.4482 8.77828C50.9449 7.29859 57.044 8.98437 60.9969 12.0814ZM33.1408 30.2428C31.0284 29.8186 28.1252 29.106 24.9568 27.9477C20.772 26.4178 15.9126 24.0321 11.8421 20.3369C11.915 21.0169 12.0184 21.6911 12.1539 22.347C12.8361 25.6503 14.1037 27.5003 15.2538 28.0754C16.6605 28.7787 17.3123 30.428 16.7667 31.903C16.0279 33.9001 14.0849 34.0638 12.3194 33.6226C13.7393 35.7513 16.2915 37.8739 20.5484 38.5834C22.0167 38.8282 23.1005 40.0868 23.1245 41.5751C23.1485 43.0635 22.1058 44.3563 20.6462 44.6483L17.9623 45.1851C18.3729 45.5419 18.8175 45.8918 19.2914 46.2199C21.4402 47.7076 23.5978 48.3492 25.4604 47.8836C26.8555 47.5349 28.3064 48.1966 28.9574 49.479C29.6085 50.761 29.2868 52.323 28.1821 53.2434C26.1967 54.8961 23.878 56.2222 21.5542 57.3227C20.4632 57.8394 19.244 58.3494 17.9199 58.7983C18.9383 59.0157 19.998 59.1939 21.0923 59.3287C26.5516 59.9999 32.6281 59.5473 38.31 57.5943C43.9726 55.6478 49.2065 52.2271 53.1224 46.963C57.0323 41.7059 59.7611 34.4308 60.1271 24.5524C60.1557 23.7747 60.4776 23.0366 61.028 22.4863C62.4143 21.0998 63.5601 19.5107 64.1237 17.6192C63.1373 17.9267 62.0267 18.1928 60.704 18.4457C59.7003 18.6376 58.6671 18.3199 57.9447 17.5975C55.5875 15.2402 50.9255 13.69 47.0513 14.7329C45.2281 15.2238 43.5708 16.2864 42.3261 18.1889C41.0554 20.1313 40.0832 23.1573 40.0832 27.7498C40.0832 28.6223 39.7136 29.4539 39.0661 30.0386C37.5306 31.4245 34.9464 30.6054 33.1408 30.2428Z" fill="#F7A578"/>
</svg>
